<?xml version="1.0" encoding="UTF-8" standalone="no"?> <svg id="Layer_1" data-name="Layer 1" xmlns="http://www.w3.org/2000/svg" viewBox="0 0 64 64"><title>moon</title><path d="M32,53A21,21,0,0,1,12.24,39.11a1,1,0,0,1,1.11-1.33,15.54,15.54,0,0,0,3.93.17A16.08,16.08,0,0,0,32,22q0-.64-.06-1.29a16,16,0,0,0-2.93-8,1,1,0,0,1-.1-1,1,1,0,0,1,.8-.58A19,19,0,0,1,32,11a21,21,0,1,1,0,42ZM14.75,40A19,19,0,1,0,31.59,13,18,18,0,0,1,34,20.56c0,.48.06,1,.06,1.46A18.1,18.1,0,0,1,17.44,40,18.59,18.59,0,0,1,14.75,40Z"/><path d="M25,21a1,1,0,0,1-1-1V16a1,1,0,0,1,2,0v4A1,1,0,0,1,25,21Z"/><path d="M27,19H23a1,1,0,0,1,0-2h4a1,1,0,0,1,0,2Z"/><path d="M20,30H16a1,1,0,0,1,0-2h4a1,1,0,0,1,0,2Z"/><path d="M18,32a1,1,0,0,1-1-1V27a1,1,0,0,1,2,0v4A1,1,0,0,1,18,32Z"/><path d="M12,23.24a1,1,0,0,1-.71-.29L7.05,18.71a1,1,0,0,1,0-1.42l4.24-4.24a1,1,0,0,1,1.42,0L17,17.29a1,1,0,0,1,0,1.42L12.71,23A1,1,0,0,1,12,23.24Z"/><rect x="10" y="16" width="4" height="4" transform="translate(-9.21 13.76) rotate(-45)"/></svg>